<svg width="70" height="14" viewBox="0 0 70 14" fill="none" xmlns="http://www.w3.org/2000/svg">
<path d="M44 14C47.866 14 51 10.866 51 7C51 3.13401 47.866 0 44 0C40.134 0 37 3.13401 37 7C37 10.866 40.134 14 44 14Z" fill="white"/>
<path d="M44 13.5C47.5899 13.5 50.5 10.5899 50.5 7C50.5 3.41015 47.5899 0.5 44 0.5C40.4101 0.5 37.5 3.41015 37.5 7C37.5 10.5899 40.4101 13.5 44 13.5Z" stroke="#0D73C1"/>
<path d="M63 14C66.866 14 70 10.866 70 7C70 3.13401 66.866 0 63 0C59.134 0 56 3.13401 56 7C56 10.866 59.134 14 63 14Z" fill="white"/>
<path d="M63 13.5C66.5899 13.5 69.5 10.5899 69.5 7C69.5 3.41015 66.5899 0.5 63 0.5C59.4101 0.5 56.5 3.41015 56.5 7C56.5 10.5899 59.4101 13.5 63 13.5Z" stroke="#0D73C1"/>
<path d="M25 14C28.866 14 32 10.866 32 7C32 3.13401 28.866 0 25 0C21.134 0 18 3.13401 18 7C18 10.866 21.134 14 25 14Z" fill="white"/>
<path d="M25 13.5C28.5899 13.5 31.5 10.5899 31.5 7C31.5 3.41015 28.5899 0.5 25 0.5C21.4101 0.5 18.5 3.41015 18.5 7C18.5 10.5899 21.4101 13.5 25 13.5Z" stroke="#0D73C1"/>
<path d="M25 11C27.2091 11 29 9.20914 29 7C29 4.79086 27.2091 3 25 3C22.7909 3 21 4.79086 21 7C21 9.20914 22.7909 11 25 11Z" fill="#0D73C1"/>
<path d="M7 14C10.866 14 14 10.866 14 7C14 3.13401 10.866 0 7 0C3.13401 0 0 3.13401 0 7C0 10.866 3.13401 14 7 14Z" fill="white"/>
<path d="M7 13.5C10.5899 13.5 13.5 10.5899 13.5 7C13.5 3.41015 10.5899 0.5 7 0.5C3.41015 0.5 0.5 3.41015 0.5 7C0.5 10.5899 3.41015 13.5 7 13.5Z" stroke="#0D73C1"/>
</svg>
