<svg width="60" height="48" viewBox="0 0 60 48" fill="none" xmlns="http://www.w3.org/2000/svg">
<path d="M57.4853 25.1271V43.7871C57.4853 43.8871 57.4782 43.9871 57.4711 44.0751C57.4782 44.0261 57.5136 43.8861 57.464 44.0751C57.4428 44.1661 57.4145 44.2571 57.3861 44.3491C57.379 44.3911 57.3082 44.5381 57.3932 44.3561C57.3178 44.522 57.2249 44.6795 57.1159 44.8261C57.2363 44.6721 57.1371 44.7981 57.1088 44.8261C57.045 44.8891 56.9742 44.9521 56.9175 45.0151C56.79 45.1481 56.875 45.0501 56.9175 45.0221C56.8447 45.0792 56.766 45.1284 56.6827 45.1691C56.626 45.1971 56.5764 45.2251 56.5197 45.2531C56.2788 45.3861 56.6968 45.2181 56.4276 45.2881C56.3653 45.3036 56.3038 45.3223 56.2434 45.3441L56.0592 45.3861C56.1867 45.3721 56.1796 45.3721 56.0521 45.3861C55.9458 45.3861 55.8497 45.3931 55.7485 45.3931H44.5442C42.0311 45.3931 39.5099 45.4281 36.9897 45.3931C36.9047 45.3931 36.8126 45.3861 36.7266 45.3791C36.5495 45.3651 36.9533 45.4491 36.677 45.3651C36.5991 45.3441 36.5211 45.3231 36.4503 45.3021C36.4007 45.2881 36.2094 45.2111 36.4007 45.2951C36.3142 45.2602 36.2309 45.218 36.1517 45.1691L35.9179 45.0221C35.9604 45.0501 36.0454 45.1481 35.9179 45.0151C35.8541 44.9521 35.7904 44.8821 35.7266 44.8261C35.6983 44.7981 35.5991 44.6721 35.7195 44.8261C35.6322 44.6993 35.5515 44.5681 35.4776 44.4331C35.343 44.1941 35.5131 44.6081 35.4422 44.3421C35.4209 44.2511 35.3926 44.1601 35.3643 44.0681C35.2793 43.7941 35.3643 44.1871 35.3501 44.0191C35.343 43.9351 35.343 43.8581 35.3359 43.7731V17.6561C35.343 17.3261 35.3572 17.0041 35.3855 16.6741L35.428 16.1901L35.4493 16.0011C35.4564 15.9381 35.4918 15.7061 35.4635 15.8961C35.6513 14.5828 35.9992 13.2968 36.4999 12.0661C36.5211 12.0101 36.5495 11.9541 36.5707 11.8911C36.4786 12.1081 36.599 11.8211 36.6132 11.8001C36.677 11.6601 36.7408 11.5191 36.8157 11.3791C36.9648 11.0704 37.121 10.7704 37.2843 10.4791C37.5828 9.94038 37.9148 9.42039 38.2782 8.9221C38.3703 8.7961 38.4624 8.67609 38.5555 8.55009C38.7397 8.30409 38.4209 8.7111 38.6192 8.4731C38.6547 8.4241 38.6972 8.3731 38.7326 8.3331C38.9452 8.0731 39.1658 7.81409 39.3996 7.56809C39.8367 7.09286 40.3014 6.64311 40.7913 6.22109C41.0261 6.02109 41.267 5.8211 41.5079 5.6391C41.3378 5.7721 41.685 5.50609 41.7346 5.47109C41.8692 5.37109 42.0119 5.2711 42.1536 5.1831C42.6809 4.82747 43.2283 4.50194 43.7932 4.2081C44.0706 4.0681 44.354 3.92709 44.6384 3.80109C44.7234 3.76609 44.8084 3.72409 44.8944 3.68909C44.9299 3.67509 45.0857 3.61209 44.9015 3.68909C45.0786 3.61909 45.2497 3.5491 45.4268 3.4891C46.0509 3.25709 46.6887 3.06273 47.3367 2.9071C47.6494 2.8301 47.9612 2.76709 48.281 2.70709C48.4369 2.67909 48.6009 2.6511 48.7567 2.6301C48.8205 2.6231 48.8843 2.6091 48.948 2.6021C48.7061 2.6371 49.026 2.5951 49.0543 2.5881C49.7094 2.51215 50.3684 2.47475 51.0279 2.4761L49.9632 1.4241V11.1051L51.0279 10.0531C49.467 10.0631 47.9424 10.5187 46.6374 11.365C45.3325 12.2113 44.303 13.4122 43.6728 14.8231C42.8844 16.6541 43.0058 18.5621 43.0058 20.5051V22.4621C43.0103 22.7397 43.1238 23.0048 43.3226 23.2011C43.5213 23.3975 43.7896 23.5097 44.0706 23.5141H55.8568C55.958 23.5141 56.0592 23.5211 56.1483 23.5281C55.9357 23.5071 56.2687 23.5631 56.3325 23.5841C56.3925 23.5996 56.4517 23.6183 56.5096 23.6401C56.4084 23.6051 56.4246 23.5981 56.5096 23.6471C56.6159 23.7031 56.7232 23.7661 56.8294 23.8291C56.8436 23.8361 56.9641 23.9291 56.872 23.8571C56.7799 23.7851 56.957 23.9341 56.9732 23.9571C57.0157 23.9991 57.2363 24.2521 57.1078 24.0831C57.1716 24.1671 57.2282 24.2581 57.2849 24.3501C57.3132 24.4061 57.3416 24.4551 57.3699 24.5111C57.4408 24.6511 57.3203 24.3641 57.3699 24.5181C57.4053 24.6371 57.4408 24.7571 57.4711 24.8761C57.5015 24.9951 57.4711 24.8481 57.4711 24.8341C57.4853 24.9318 57.4924 25.0304 57.4924 25.1291C57.5091 25.3964 57.6283 25.6473 57.8258 25.8307C58.0233 26.0141 58.2841 26.1163 58.5551 26.1163C58.8262 26.1163 59.087 26.0141 59.2844 25.8307C59.4819 25.6473 59.6011 25.3964 59.6178 25.1291C59.6038 24.1425 59.199 23.2006 58.4902 22.5055C57.7814 21.8105 56.8251 21.4175 55.8264 21.4111C55.1523 21.4041 54.4843 21.4111 53.8103 21.4111H44.0696L45.1343 22.4631V17.9941C45.1343 17.8121 45.1414 17.6361 45.1556 17.4541C45.1778 17.1556 45.2276 16.8597 45.3044 16.5701C45.5987 15.3812 46.2674 14.3153 47.2142 13.5261C47.3186 13.426 47.4329 13.3366 47.5553 13.2591C47.7041 13.1541 47.859 13.0591 48.0168 12.9641C48.1747 12.8691 48.3367 12.7891 48.4996 12.7041C48.5634 12.6691 48.6342 12.6411 48.7021 12.6131C49.0148 12.4731 48.532 12.6621 48.8579 12.5501C49.2102 12.4257 49.5707 12.3254 49.9369 12.2501C50.029 12.2291 50.1211 12.2151 50.2142 12.2011C50.2705 12.193 50.3273 12.1883 50.3842 12.1871C50.5968 12.1661 50.8103 12.1591 51.0229 12.1591C51.3039 12.1547 51.5721 12.0425 51.7709 11.8461C51.9696 11.6498 52.0832 11.3847 52.0876 11.1071V1.4231C52.0832 1.14545 51.9696 0.880413 51.7709 0.684067C51.5721 0.48772 51.3039 0.375475 51.0229 0.371094C48.2085 0.386602 45.4369 1.05337 42.9303 2.31795C40.4238 3.58252 38.2519 5.40974 36.5889 7.6531C34.98 9.82075 33.91 12.3321 33.4655 14.9841C33.275 16.2213 33.187 17.4718 33.2024 18.7231V42.5741C33.1255 43.421 33.2076 44.2746 33.4443 45.0921C33.7186 45.7988 34.2018 46.4076 34.831 46.8392C35.4603 47.2708 36.2065 47.5053 36.9725 47.5121H52.9409C53.8852 47.5121 54.8295 47.5191 55.7809 47.5121C56.2895 47.5132 56.7932 47.4142 57.2626 47.2207C57.732 47.0272 58.1576 46.7432 58.5146 46.3853C58.8716 46.0274 59.1527 45.6027 59.3416 45.1362C59.5306 44.6696 59.6234 44.1705 59.6148 43.6681C59.6219 40.8551 59.6148 38.0421 59.6148 35.2291V25.1341C59.6153 24.9962 59.5883 24.8596 59.5353 24.732C59.4823 24.6044 59.4044 24.4884 59.3061 24.3906C59.2077 24.2928 59.0908 24.2151 58.962 24.1619C58.8333 24.1087 58.6952 24.0811 58.5556 24.0806C58.4161 24.0801 58.2778 24.1068 58.1487 24.1592C58.0196 24.2115 57.9021 24.2885 57.8031 24.3857C57.7041 24.4828 57.6254 24.5983 57.5716 24.7255C57.5178 24.8528 57.4898 24.9892 57.4893 25.1271H57.4853Z" fill="#0D73C1"/>
<path d="M24.6123 25.1271V43.7871C24.6123 43.8871 24.6052 43.9871 24.5982 44.0751C24.6052 44.0261 24.6407 43.8861 24.5911 44.0751C24.5698 44.1661 24.5415 44.2571 24.5131 44.3491C24.506 44.3911 24.4352 44.5381 24.5202 44.3561C24.4448 44.522 24.3519 44.6795 24.2429 44.8261C24.3633 44.6721 24.2641 44.7981 24.2358 44.8261C24.172 44.8891 24.1012 44.9521 24.0445 45.0151C23.917 45.1481 24.002 45.0501 24.0445 45.0221C23.972 45.0791 23.8937 45.1284 23.8107 45.1691C23.754 45.1971 23.7044 45.2251 23.6478 45.2531C23.4059 45.3861 23.8249 45.2181 23.5557 45.2881C23.4933 45.3036 23.4318 45.3222 23.3715 45.3441L23.1872 45.3861C23.3148 45.3721 23.3077 45.3721 23.1802 45.3861C23.0739 45.3861 22.9777 45.3931 22.8765 45.3931H11.6723C9.15918 45.3931 6.63797 45.4281 4.11777 45.3931C4.03276 45.3931 3.94065 45.3861 3.85462 45.3791C3.6775 45.3651 4.08133 45.4491 3.80502 45.3651C3.72709 45.3441 3.64916 45.3231 3.57831 45.3021C3.52871 45.2881 3.33641 45.2111 3.52872 45.2951C3.44224 45.2602 3.35895 45.218 3.27973 45.1691L3.04492 45.0221C3.08742 45.0501 3.17244 45.1481 3.04492 45.0151C2.98115 44.9521 2.91739 44.8821 2.85363 44.8261C2.82529 44.7981 2.7261 44.6721 2.84654 44.8261C2.75919 44.6993 2.67845 44.5681 2.60464 44.4331C2.47003 44.1941 2.64006 44.6081 2.56921 44.3421C2.54796 44.2511 2.51962 44.1601 2.49128 44.0681C2.40627 43.7941 2.49128 44.1871 2.47712 44.0191C2.47003 43.9351 2.47003 43.8581 2.46295 43.7731V17.6561C2.47003 17.3261 2.4842 17.0041 2.51254 16.6741L2.55504 16.1901L2.5763 16.0011C2.58339 15.9381 2.61881 15.7061 2.59047 15.8961C2.7773 14.5815 3.12462 13.2941 3.62486 12.0621C3.64612 12.0061 3.67446 11.9501 3.69572 11.8871C3.60361 12.1041 3.72406 11.8171 3.73823 11.7961C3.80199 11.6561 3.86575 11.5151 3.94065 11.3751C4.08977 11.0664 4.24597 10.7664 4.40926 10.4751C4.70781 9.93638 5.03975 9.41639 5.40317 8.9181C5.49528 8.7921 5.58738 8.6721 5.6805 8.5461C5.8647 8.3001 5.54588 8.70709 5.74426 8.46909C5.77968 8.42009 5.82219 8.36909 5.85761 8.32909C6.07016 8.06909 6.29081 7.81009 6.52461 7.56409C6.96173 7.08886 7.4264 6.63911 7.91628 6.21709C8.15009 6.01709 8.39198 5.81709 8.63388 5.63509C8.46385 5.76809 8.811 5.50209 8.8606 5.46709C8.99521 5.36709 9.13792 5.26709 9.27962 5.17909C9.80689 4.82345 10.3543 4.49792 10.9193 4.20409C11.1966 4.06409 11.48 3.9231 11.7644 3.7971C11.8494 3.7621 11.9344 3.7201 12.0205 3.6851C12.0559 3.6711 12.2117 3.6081 12.0275 3.6851C12.2047 3.6151 12.3757 3.54509 12.5528 3.48509C13.177 3.25309 13.8148 3.05873 14.4627 2.9031C14.7755 2.8261 15.0872 2.76309 15.407 2.70309C15.5629 2.67509 15.7269 2.6471 15.8827 2.6261C15.9465 2.6191 16.0103 2.6051 16.074 2.5981C15.8321 2.6331 16.152 2.5911 16.1803 2.5841C16.8353 2.50815 17.4944 2.47075 18.154 2.4721L17.0892 1.4201V11.1011L18.154 10.0491C16.5931 10.0591 15.0684 10.5147 13.7635 11.361C12.4585 12.2073 11.429 13.4082 10.7988 14.8191C10.0104 16.6501 10.1318 18.5581 10.1318 20.5011V22.4621C10.1363 22.7397 10.2499 23.0048 10.4486 23.2011C10.6473 23.3975 10.9156 23.5097 11.1966 23.5141H22.9828C23.084 23.5141 23.1852 23.5211 23.2743 23.5281C23.0617 23.5071 23.3947 23.5631 23.4585 23.5841C23.5185 23.5996 23.5776 23.6183 23.6356 23.6401C23.5344 23.6051 23.5506 23.5981 23.6356 23.6471C23.7419 23.7031 23.8482 23.7661 23.9555 23.8291C23.9696 23.8361 24.0901 23.9291 23.998 23.8571C23.9059 23.7851 24.083 23.9341 24.0992 23.9571C24.1417 23.9991 24.3623 24.2521 24.2338 24.0831C24.2975 24.1671 24.3542 24.2581 24.4109 24.3501C24.4392 24.4061 24.4676 24.4551 24.4959 24.5111C24.5668 24.6511 24.4463 24.3641 24.4959 24.5181C24.5314 24.6371 24.5668 24.7571 24.5971 24.8761C24.6275 24.9951 24.5971 24.8481 24.5971 24.8341C24.6113 24.9318 24.6184 25.0304 24.6184 25.1291C24.6094 25.2724 24.6303 25.4161 24.6796 25.5511C24.729 25.6862 24.8058 25.8099 24.9054 25.9145C25.0049 26.0192 25.1251 26.1025 25.2585 26.1595C25.392 26.2165 25.5358 26.2459 25.6811 26.2459C25.8265 26.2459 25.9703 26.2165 26.1037 26.1595C26.2371 26.1025 26.3573 26.0192 26.4569 25.9145C26.5564 25.8099 26.6333 25.6862 26.6826 25.5511C26.732 25.4161 26.7528 25.2724 26.7439 25.1291C26.7299 24.1425 26.325 23.2006 25.6162 22.5055C24.9074 21.8105 23.9511 21.4175 22.9524 21.4111C22.2784 21.4041 21.6104 21.4111 20.9363 21.4111H11.1956L12.2603 22.4631V17.9941C12.2603 17.8121 12.2674 17.6361 12.2816 17.4541C12.3038 17.1556 12.3536 16.8597 12.4304 16.5701C12.7247 15.3812 13.3934 14.3153 14.3403 13.5261C14.4446 13.426 14.5589 13.3366 14.6813 13.2591C14.8301 13.1541 14.985 13.0591 15.1429 12.9641C15.3008 12.8691 15.4627 12.7891 15.6257 12.7041C15.6894 12.6691 15.7603 12.6411 15.8281 12.6131C16.1408 12.4731 15.658 12.6621 15.9839 12.5501C16.3362 12.4257 16.6967 12.3254 17.0629 12.2501C17.155 12.2291 17.2471 12.2151 17.3402 12.2011C17.3965 12.193 17.4533 12.1883 17.5102 12.1871C17.7228 12.1661 17.9363 12.1591 18.1489 12.1591C18.4299 12.1547 18.6981 12.0425 18.8969 11.8461C19.0956 11.6498 19.2092 11.3847 19.2136 11.1071V1.4231C19.2092 1.14545 19.0956 0.880413 18.8969 0.684067C18.6981 0.48772 18.4299 0.375475 18.1489 0.371094C15.3345 0.386602 12.5629 1.05337 10.0564 2.31795C7.54978 3.58252 5.37795 5.40974 3.71495 7.6531C2.10563 9.82066 1.03529 12.332 0.590513 14.9841C0.399989 16.2213 0.311977 17.4718 0.327358 18.7231V42.5741C0.25055 43.421 0.332553 44.2746 0.569254 45.0921C0.843537 45.7988 1.32676 46.4076 1.95604 46.8392C2.58532 47.2708 3.33151 47.5053 4.09753 47.5121H20.0659C21.0102 47.5121 21.9545 47.5191 22.9059 47.5121C23.4145 47.5132 23.9182 47.4142 24.3876 47.2207C24.857 47.0272 25.2826 46.7432 25.6396 46.3853C25.9966 46.0274 26.2777 45.6027 26.4667 45.1362C26.6556 44.6696 26.7484 44.1705 26.7398 43.6681C26.7469 40.8551 26.7398 38.0421 26.7398 35.2291V25.1341C26.7407 24.8556 26.6297 24.5882 26.4311 24.3906C26.2324 24.193 25.9625 24.0815 25.6806 24.0806C25.3988 24.0797 25.1281 24.1894 24.9281 24.3857C24.7282 24.5819 24.6153 24.8486 24.6144 25.1271H24.6123Z" fill="#0D73C1"/>
</svg>
