<svg width="60" height="48" viewBox="0 0 60 48" fill="none" xmlns="http://www.w3.org/2000/svg">
<path d="M2.27677 22.8188V4.15882C2.27677 4.05882 2.28386 3.95882 2.29095 3.87082C2.28386 3.91982 2.24843 4.05982 2.29802 3.87082C2.31928 3.77982 2.34761 3.68882 2.37595 3.59682C2.38304 3.55482 2.4539 3.40782 2.36888 3.58982C2.44427 3.42392 2.53722 3.26637 2.64619 3.11982C2.52575 3.27382 2.62495 3.14782 2.65329 3.11982C2.71706 3.05682 2.7879 2.99381 2.84458 2.93081C2.97211 2.79781 2.88709 2.89582 2.84458 2.92382C2.91738 2.86676 2.99608 2.81749 3.07939 2.77682C3.13607 2.74882 3.18567 2.72082 3.24235 2.69282C3.48324 2.55982 3.06523 2.72782 3.33446 2.65782C3.39681 2.64235 3.45827 2.62366 3.51864 2.60182L3.70285 2.55982C3.57533 2.57382 3.5824 2.57382 3.70993 2.55982C3.8162 2.55982 3.91237 2.55282 4.01358 2.55282H15.2178C17.7309 2.55282 20.2521 2.51782 22.7723 2.55282C22.8574 2.55282 22.9495 2.55982 23.0355 2.56682C23.2126 2.58082 22.8088 2.49682 23.0851 2.58082C23.163 2.60182 23.2409 2.62282 23.3118 2.64382C23.3614 2.65782 23.5527 2.73482 23.3614 2.65082C23.4479 2.68575 23.5312 2.7279 23.6104 2.77682L23.8442 2.92382C23.8017 2.89582 23.7166 2.79781 23.8442 2.93081C23.9079 2.99381 23.9717 3.06382 24.0355 3.11982C24.0638 3.14782 24.163 3.27382 24.0426 3.11982C24.1299 3.24667 24.2106 3.37784 24.2844 3.51282C24.4191 3.75182 24.249 3.33782 24.3199 3.60382C24.3411 3.69482 24.3695 3.78582 24.3978 3.87782C24.4828 4.15182 24.3978 3.75882 24.412 3.92682C24.4191 4.01082 24.4191 4.08782 24.4262 4.17282V30.2898C24.4191 30.6198 24.4049 30.9418 24.3765 31.2718L24.334 31.7558L24.3128 31.9448C24.3057 32.0078 24.2703 32.2398 24.2986 32.0498C24.1108 33.3631 23.7628 34.6491 23.2622 35.8798C23.241 35.9358 23.2126 35.9918 23.1914 36.0548C23.2835 35.8378 23.163 36.1248 23.1489 36.1458C23.0851 36.2858 23.0213 36.4268 22.9464 36.5668C22.7973 36.8755 22.6411 37.1755 22.4778 37.4668C22.1793 38.0055 21.8473 38.5255 21.4839 39.0238C21.3918 39.1498 21.2997 39.2698 21.2066 39.3958C21.0224 39.6418 21.3412 39.2348 21.1428 39.4728C21.1074 39.5218 21.0649 39.5728 21.0295 39.6128C20.8169 39.8728 20.5963 40.1318 20.3625 40.3778C19.9253 40.8531 19.4607 41.3028 18.9708 41.7248C18.736 41.9248 18.4951 42.1248 18.2542 42.3068C18.4243 42.1738 18.0771 42.4398 18.0275 42.4748C17.8929 42.5748 17.7502 42.6748 17.6085 42.7628C17.0812 43.1184 16.5338 43.444 15.9688 43.7378C15.6915 43.8778 15.4081 44.0188 15.1237 44.1448C15.0387 44.1798 14.9537 44.2218 14.8676 44.2568C14.8322 44.2708 14.6764 44.3338 14.8606 44.2568C14.6834 44.3268 14.5124 44.3968 14.3353 44.4568C13.7111 44.6888 13.0733 44.8832 12.4254 45.0388C12.1126 45.1158 11.8009 45.1788 11.481 45.2388C11.3252 45.2668 11.1612 45.2948 11.0053 45.3158C10.9416 45.3228 10.8778 45.3368 10.8141 45.3438C11.056 45.3088 10.7361 45.3508 10.7078 45.3578C10.0527 45.4338 9.39369 45.4712 8.73415 45.4698L9.7989 46.5218V36.8408L8.73415 37.8928C10.295 37.8828 11.8197 37.4272 13.1246 36.5809C14.4296 35.7347 15.4591 34.5338 16.0893 33.1228C16.8777 31.2918 16.7563 29.3838 16.7563 27.4408V25.4768C16.7518 25.1992 16.6382 24.9341 16.4395 24.7378C16.2408 24.5414 15.9725 24.4292 15.6915 24.4248H3.91036C3.80915 24.4248 3.70791 24.4178 3.61884 24.4108C3.83139 24.4318 3.49842 24.3758 3.43466 24.3548C3.37463 24.3394 3.31548 24.3207 3.25752 24.2988C3.35873 24.3338 3.34254 24.3408 3.25752 24.2918C3.15124 24.2358 3.04398 24.1728 2.93771 24.1098C2.92354 24.1028 2.80307 24.0098 2.89517 24.0818C2.98728 24.1538 2.81015 24.0048 2.79395 23.9818C2.75145 23.9398 2.53081 23.6868 2.65935 23.8558C2.59558 23.7718 2.53892 23.6808 2.48224 23.5888C2.4539 23.5328 2.42554 23.4838 2.3972 23.4278C2.32635 23.2878 2.4468 23.5748 2.3972 23.4208C2.36178 23.3018 2.32638 23.1818 2.29601 23.0628C2.26565 22.9438 2.29601 23.0908 2.29601 23.1048C2.28185 23.0071 2.27472 22.9085 2.27473 22.8098C2.25803 22.5425 2.1388 22.2916 1.94133 22.1082C1.74387 21.9248 1.48304 21.8227 1.21201 21.8227C0.940982 21.8227 0.680159 21.9248 0.482693 22.1082C0.285228 22.2916 0.165997 22.5425 0.149292 22.8098C0.163307 23.7964 0.56813 24.7383 1.27694 25.4334C1.98575 26.1285 2.94207 26.5214 3.94072 26.5278C4.6148 26.5348 5.28277 26.5278 5.95685 26.5278H15.6976L14.6328 25.4758V29.9448C14.6328 30.1268 14.6257 30.3028 14.6116 30.4848C14.5893 30.7833 14.5395 31.0792 14.4628 31.3688C14.1685 32.5577 13.4997 33.6236 12.5529 34.4128C12.4486 34.5129 12.3343 34.6024 12.2118 34.6798C12.063 34.7848 11.9082 34.8798 11.7503 34.9748C11.5924 35.0698 11.4304 35.1498 11.2675 35.2348C11.2037 35.2698 11.1329 35.2978 11.0651 35.3258C10.7523 35.4658 11.2351 35.2768 10.9092 35.3888C10.557 35.5132 10.1965 35.6135 9.83029 35.6888C9.73818 35.7098 9.64606 35.7238 9.55295 35.7378C9.49661 35.746 9.43983 35.7506 9.38291 35.7518C9.17036 35.7728 8.95682 35.7798 8.74428 35.7798C8.46327 35.7842 8.195 35.8964 7.99627 36.0928C7.79754 36.2891 7.68395 36.5542 7.67952 36.8318V46.5188C7.68395 46.7965 7.79754 47.0615 7.99627 47.2578C8.195 47.4542 8.46327 47.5664 8.74428 47.5708C11.5587 47.5553 14.3302 46.8885 16.8368 45.624C19.3433 44.3594 21.5152 42.5322 23.1782 40.2888C24.7872 38.1212 25.8571 35.6098 26.3016 32.9578C26.4921 31.7206 26.5802 30.4701 26.5648 29.2188V5.36982C26.6416 4.52293 26.5596 3.66931 26.3229 2.85182C26.0486 2.14513 25.5654 1.53636 24.9361 1.10475C24.3068 0.673136 23.5606 0.43866 22.7946 0.431822H6.82831C5.884 0.431822 4.93969 0.424822 3.98829 0.431822C3.47969 0.430686 2.97596 0.529749 2.50658 0.723227C2.03719 0.916704 1.61156 1.20071 1.25458 1.55863C0.897593 1.91655 0.616412 2.3412 0.427497 2.80775C0.238583 3.2743 0.145745 3.77339 0.154358 4.27582C0.147273 7.08882 0.154358 9.90182 0.154358 12.7148V22.8088C0.153418 23.0873 0.264474 23.3547 0.463111 23.5523C0.661747 23.7499 0.931672 23.8614 1.21353 23.8623C1.49538 23.8632 1.76608 23.7535 1.96604 23.5573C2.16601 23.361 2.27886 23.0943 2.2798 22.8158L2.27677 22.8188Z" fill="#0D73C1"/>
<path d="M35.1507 22.8188V4.15882C35.1507 4.05882 35.1577 3.95882 35.1648 3.87082C35.1577 3.91982 35.1223 4.05982 35.1719 3.87082C35.1932 3.77982 35.2215 3.68882 35.2499 3.59682C35.2569 3.55482 35.3278 3.40782 35.2428 3.58982C35.3182 3.42393 35.4111 3.26638 35.5201 3.11982C35.3996 3.27382 35.4988 3.14782 35.5272 3.11982C35.5909 3.05682 35.6618 2.99381 35.7185 2.93081C35.846 2.79781 35.761 2.89582 35.7185 2.92382C35.7909 2.86682 35.8693 2.81755 35.9523 2.77682C36.0089 2.74882 36.0585 2.72082 36.1152 2.69282C36.3571 2.55982 35.9381 2.72782 36.2073 2.65782C36.2697 2.64236 36.3312 2.62366 36.3915 2.60182L36.5757 2.55982C36.4482 2.57382 36.4553 2.57382 36.5828 2.55982C36.6891 2.55982 36.7852 2.55282 36.8865 2.55282H48.0907C50.6038 2.55282 53.125 2.51782 55.6452 2.55282C55.7302 2.55282 55.8223 2.55982 55.9084 2.56682C56.0855 2.58082 55.6816 2.49682 55.958 2.58082C56.0359 2.60182 56.1138 2.62282 56.1847 2.64382C56.2343 2.65782 56.4266 2.73482 56.2343 2.65082C56.3208 2.68573 56.4041 2.72788 56.4833 2.77682L56.7181 2.92382C56.6756 2.89582 56.5905 2.79781 56.7181 2.93081C56.7818 2.99381 56.8456 3.06382 56.9094 3.11982C56.9377 3.14782 57.0369 3.27382 56.9164 3.11982C57.0038 3.24666 57.0845 3.37783 57.1583 3.51282C57.293 3.75182 57.1229 3.33782 57.1938 3.60382C57.215 3.69482 57.2434 3.78582 57.2717 3.87782C57.3567 4.15182 57.2717 3.75882 57.2859 3.92682C57.293 4.01082 57.293 4.08782 57.3 4.17282V30.2898C57.293 30.6198 57.2788 30.9418 57.2504 31.2718L57.2079 31.7558L57.1867 31.9448C57.1796 32.0078 57.1442 32.2398 57.1725 32.0498C56.9847 33.3631 56.6367 34.6491 56.1361 35.8798C56.1148 35.9358 56.0865 35.9918 56.0652 36.0548C56.1573 35.8378 56.0369 36.1248 56.0227 36.1458C55.959 36.2858 55.8952 36.4268 55.8203 36.5668C55.6712 36.8755 55.515 37.1755 55.3517 37.4668C55.0531 38.0056 54.7212 38.5255 54.3578 39.0238C54.2657 39.1498 54.1736 39.2698 54.0805 39.3958C53.8963 39.6418 54.2151 39.2348 54.0167 39.4728C53.9813 39.5218 53.9388 39.5728 53.9033 39.6128C53.6908 39.8728 53.4702 40.1318 53.2364 40.3778C52.7992 40.8531 52.3346 41.3028 51.8447 41.7248C51.6109 41.9248 51.369 42.1248 51.1271 42.3068C51.2971 42.1738 50.95 42.4398 50.9004 42.4748C50.7658 42.5748 50.623 42.6748 50.4813 42.7628C49.9541 43.1185 49.4066 43.444 48.8417 43.7378C48.5644 43.8778 48.281 44.0188 47.9966 44.1448C47.9115 44.1798 47.8265 44.2218 47.7405 44.2568C47.7051 44.2708 47.5492 44.3338 47.7334 44.2568C47.5563 44.3268 47.3853 44.3968 47.2081 44.4568C46.584 44.6888 45.9462 44.8832 45.2982 45.0388C44.9855 45.1158 44.6738 45.1788 44.3539 45.2388C44.1981 45.2668 44.0341 45.2948 43.8782 45.3158C43.8145 45.3228 43.7507 45.3368 43.6869 45.3438C43.9288 45.3088 43.609 45.3508 43.5807 45.3578C42.9256 45.4338 42.2666 45.4712 41.607 45.4698L42.6718 46.5218V36.8408L41.607 37.8928C43.1679 37.8828 44.6926 37.4272 45.9975 36.5809C47.3024 35.7347 48.332 34.5338 48.9621 33.1228C49.7506 31.2918 49.6291 29.3838 49.6291 27.4408V25.4768C49.6247 25.1992 49.5111 24.9341 49.3124 24.7378C49.1136 24.5414 48.8454 24.4292 48.5644 24.4248H36.7832C36.682 24.4248 36.5808 24.4178 36.4917 24.4108C36.7043 24.4318 36.3713 24.3758 36.3075 24.3548C36.2475 24.3393 36.1884 24.3206 36.1304 24.2988C36.2316 24.3338 36.2154 24.3408 36.1304 24.2918C36.0241 24.2358 35.9179 24.1728 35.8106 24.1098C35.7964 24.1028 35.676 24.0098 35.7681 24.0818C35.8602 24.1538 35.683 24.0048 35.6668 23.9818C35.6243 23.9398 35.4037 23.6868 35.5322 23.8558C35.4685 23.7718 35.4118 23.6808 35.3551 23.5888C35.3268 23.5328 35.2984 23.4838 35.2701 23.4278C35.1992 23.2878 35.3197 23.5748 35.2701 23.4208C35.2347 23.3018 35.1992 23.1818 35.1689 23.0628C35.1385 22.9438 35.1689 23.0908 35.1689 23.1048C35.1547 23.0071 35.1476 22.9085 35.1476 22.8098C35.1309 22.5425 35.0117 22.2916 34.8142 22.1082C34.6168 21.9248 34.3559 21.8227 34.0849 21.8227C33.8139 21.8227 33.553 21.9248 33.3556 22.1082C33.1581 22.2916 33.0389 22.5425 33.0222 22.8098C33.0362 23.7964 33.441 24.7383 34.1498 25.4334C34.8586 26.1285 35.8149 26.5214 36.8136 26.5278C37.4877 26.5348 38.1557 26.5278 38.8297 26.5278H48.5704L47.5057 25.4758V29.9448C47.5057 30.1268 47.4986 30.3028 47.4844 30.4848C47.4622 30.7833 47.4124 31.0792 47.3356 31.3688C47.0413 32.5577 46.3726 33.6236 45.4258 34.4128C45.3214 34.5129 45.2071 34.6023 45.0847 34.6798C44.9359 34.7848 44.781 34.8798 44.6232 34.9748C44.4653 35.0698 44.3033 35.1498 44.1404 35.2348C44.0766 35.2698 44.0058 35.2978 43.9379 35.3258C43.6252 35.4658 44.108 35.2768 43.7821 35.3888C43.4298 35.5132 43.0694 35.6135 42.7031 35.6888C42.611 35.7098 42.5189 35.7238 42.4258 35.7378C42.3695 35.746 42.3127 35.7506 42.2558 35.7518C42.0432 35.7728 41.8297 35.7798 41.6171 35.7798C41.3361 35.7842 41.0679 35.8964 40.8691 36.0928C40.6704 36.2891 40.5568 36.5542 40.5524 36.8318V46.5188C40.5568 46.7965 40.6704 47.0615 40.8691 47.2578C41.0679 47.4542 41.3361 47.5664 41.6171 47.5708C44.4315 47.5553 47.2031 46.8885 49.7097 45.624C52.2162 44.3594 54.3881 42.5322 56.0511 40.2888C57.6604 38.1213 58.7307 35.6099 59.1755 32.9578C59.366 31.7206 59.454 30.4701 59.4387 29.2188V5.36982C59.5158 4.52299 59.4341 3.66937 59.1978 2.85182C58.9235 2.14513 58.4403 1.53636 57.811 1.10475C57.1817 0.673136 56.4355 0.43866 55.6695 0.431822H39.7012C38.7569 0.431822 37.8126 0.424822 36.8612 0.431822C36.3526 0.430686 35.8488 0.529749 35.3795 0.723227C34.9101 0.916704 34.4844 1.20071 34.1275 1.55863C33.7705 1.91655 33.4893 2.3412 33.3004 2.80775C33.1115 3.2743 33.0186 3.77339 33.0272 4.27582C33.0201 7.08882 33.0272 9.90182 33.0272 12.7148V22.8088C33.0263 23.0873 33.1373 23.3547 33.336 23.5523C33.5346 23.7499 33.8046 23.8614 34.0864 23.8623C34.3683 23.8632 34.6389 23.7535 34.8389 23.5573C35.0389 23.361 35.1517 23.0943 35.1527 22.8158L35.1507 22.8188Z" fill="#0D73C1"/>
</svg>
